<?xml version="1.0" encoding="utf-8"?>
<!-- Generator: Adobe Illustrator 16.0.4, SVG Export Plug-In . SVG Version: 6.00 Build 0)  -->
<!DOCTYPE svg PUBLIC "-//W3C//DTD SVG 1.1//EN" "http://www.w3.org/Graphics/SVG/1.1/DTD/svg11.dtd">
<svg version="1.1" id="Ebene_1" xmlns="http://www.w3.org/2000/svg" xmlns:xlink="http://www.w3.org/1999/xlink" x="0px" y="0px"
	 width="464px" height="310.39px" viewBox="-188.823 0 464 310.39" enable-background="new -188.823 0 464 310.39"
	 xml:space="preserve">
<path fill="none" stroke="#1D1D1B" stroke-width="2" d="M-117.692,14.244h24.605V5.669h25.285v8.575h24.846V39.09h8.574v25.285
	h-8.574v24.604h8.574v25.285h-8.574v24.846h-24.846v8.575h-25.285v-8.575h-24.605v8.575h-25.285v-8.575h-24.846v-24.846h-8.575
	V88.979h8.575V64.375h-8.575V39.09h8.575V14.244h24.846V5.669h25.285V14.244z"/>
<path fill="none" stroke="#1D1D1B" stroke-width="2" d="M30.308,14.244h24.605V5.669h25.286v8.575h24.846V39.09h8.574v25.285h-8.574
	v24.604h8.574v25.285h-8.574v24.846H80.199v8.575H54.913v-8.575H30.308v8.575H5.023v-8.575h-24.846v-24.846h-8.575V88.979h8.575
	V64.375h-8.575V39.09h8.575V14.244H5.023V5.669h25.285V14.244z"/>
<path fill="none" stroke="#1D1D1B" stroke-width="2" d="M154.462,14.244h24.604V5.669h25.285v8.575h24.604V5.669h25.285v8.844
	h-0.099V39.09h8.574v25.285h-8.574v24.604h8.574v25.285h-8.574v24.576h0.099v8.844h-25.285v-8.574h-24.604v8.574h-25.285v-8.574
	h-24.604v8.574h-25.285v-8.844h0.1v-24.576h-8.575V88.979h8.575V64.375h-8.575V39.09h8.575V14.513h-0.1V5.669h25.285V14.244z"/>
<path fill="none" stroke="#1D1D1B" stroke-width="2" d="M-142.637,165.488h24.605v-8.574h25.285v8.574h24.604v-8.574h25.285v8.476
	h8.476v25.285h-8.574v24.604h8.574v25.285h-8.574v24.604h8.574v25.285h-8.844v-0.1h-24.576v8.575h-25.285v-8.575h-24.605v8.575
	h-25.285v-8.575h-24.577v0.1h-8.844v-25.285h8.575v-24.604h-8.575v-25.285h8.575v-24.604h-8.575V165.39h8.476v-8.476h25.285V165.488
	z"/>
<path fill="none" stroke="#1D1D1B" stroke-width="2" d="M5.363,165.489h24.605v-8.575h25.285v8.575h24.604v-8.575h25.285v8.476
	h8.477v25.285h-8.574v24.604h8.574v25.285h-8.574v24.604h8.574v25.285h-8.477v8.476H79.857v-8.574H55.253v8.574H29.968v-8.574H5.363
	v8.574h-25.285v-8.844h0.099V265.51h-8.575v-25.285h8.575V215.62h-8.575v-25.285h8.575v-24.576h-0.099v-8.845H5.363V165.489z"/>
<path fill="none" stroke="#1D1D1B" stroke-width="2" d="M154.462,165.488h24.604v-8.574h25.285v8.574h24.604v-8.574h25.285v8.476
	h8.476v25.285h-8.574v24.604h8.574v25.285h-8.574v24.604h8.574v25.285h-8.476v8.476h-25.285v-8.575h-24.604v8.575h-25.285v-8.575
	h-24.604v8.575h-25.285v-8.476h-8.476v-25.285h8.575v-24.604h-8.575v-25.285h8.575v-24.604h-8.575V165.39h8.476v-8.476h25.285
	V165.488z"/>
</svg>
